{"title":"Batman v Superman-Dawn of Justice 2016 720P HDTS x264 Hive-CM8","uid":14117281,"size":4633522420,"categoryP":"video","categoryS":"hd___movies","magnet":"?xt=urn:btih:c491fa8a6f2badd5af9ab241cdd8c36e6feb2e10&amp;dn=Batman+v+Superman-Dawn+of+Justice+2016+720P+HDTS+x264+Hive-CM8&amp;tr=udp%3A%2F%2Ftracker.leechers-paradise.org%3A6969&amp;tr=udp%3A%2F%2Fzer0day.ch%3A1337&amp;tr=udp%3A%2F%2Fopen.demonii.com%3A1337&amp;tr=udp%3A%2F%2Ftracker.coppersurfer.tk%3A6969&amp;tr=udp%3A%2F%2Fexodus.desync.com%3A6969","seeders":15,"leechers":8,"uploader":"SaM","files":4,"time":1459433522,"description":"Batman.v.Superman-Dawn of Justice.2016.720P.HDTS.x264.AC3.HQ.Hive-CM8\r\n\r\nThx Hive\r\n\r\nCM8 Doing It Right The First Time\r\n\r\nSources:\r\n\r\nVideo: New 1080p HDCAM thx m8\r\n\r\nAudio: Sweet Direct Line Big Thx to Exclusive + Cadance Line\r\n\r\n\r\n\r\nNotes:\r\nI could have been first with the good unmarked latino cam when the chinese one appeared\r\nbut i decided to wait for a 1080p source instead, thats worth of that big movie blockbuster, so i waited\r\n\r\nfinally got the good one when the latino dropped, which had great quality, its as good as it gets that early.\r\nhad english screentext with english subs when needed already hardcoded\r\n\r\nI maybe last to release but definately best.This movie is too big to waste on low quality reencodes.\r\n\r\nNothing cropped around, no constant heads in the view, no flicker, no movements, no focus issues\r\nit only had way too much luma and a bit reddish, which is fixable though\r\n\r\nAnother perfect release, best possible Video and best possible Line combined.\r\nOne good release is the way to go, patience\r\nthx for everyone involved\r\n\r\n\r\nEncode:\r\nFixed brightness,contrast,black base, white base and rgb.\r\nhave done a 720p version for the quality hunters, and a normal avi for the majority\r\nboth have nice quality\r\n\r\nHad a nice line from cadance ready, but in the end the Exclusive Audio was better so i went with that\r\nThx to both guys for getting quality stuff, you are much appreciated.\r\n\r\nExclusive Audio was missing 7secs of Audio on a spot, replaced it with cadance line.\r\nVideo is complete nothing is missing\r\n\r\n\r\nwont get better than this till retail\r\nenjoy\r\n\r\nVideo: 1280x576 @bitrate 4000-8000\r\nAudio: Line AC3 2.0 Stereo\r\nSample: yes included\r\n\r\n\r\n \nhttp://www.imdb.com/title/tt2975590\r\n\r\n\r\n\r\nGeneral\r\nComplete name : Batman.v.Superman-Dawn of Justice.2016.720P.HDTS.x264.AC3.HQ.Hive-CM8.mkv\r\nFormat : Matroska\r\nFormat version : Version 2\r\nFile size : 4.27 GiB\r\nDuration : 2h 23mn\r\nOverall bit rate mode : Variable\r\nOverall bit rate : 4 256 Kbps\r\nEncoded date : UTC 2016-03-30 20:07:47\r\nWriting application : mkvmerge v5.6.0 ('Kenya Kane') built on May 27 2012 16:44:04\r\nWriting library : libebml v1.2.3 + libmatroska v1.3.0\r\n\r\nVideo\r\nID : 1\r\nFormat : AVC\r\nFormat/Info : Advanced Video Codec\r\nFormat profile :   \r\nFormat settings, CABAC : Yes\r\nFormat settings, ReFrames : 3 frames\r\nFormat settings, GOP : M=4, N=33\r\nMuxing mode : Header stripping\r\nCodec ID : V_MPEG4/ISO/AVC\r\nDuration : 2h 23mn\r\nBit rate mode : Variable\r\nBit rate : 3 916 Kbps\r\nMaximum bit rate : 8 000 Kbps\r\nWidth : 1 280 pixels\r\nHeight : 576 pixels\r\nDisplay aspect ratio : 2.222\r\nFrame rate mode : Constant\r\nFrame rate : 25.000 fps\r\nStandard : PAL\r\nColor space : YUV\r\nChroma subsampling : 4:2:0\r\nBit depth : 8 bits\r\nScan type : Progressive\r\nBits/(Pixel*Frame) : 0.212\r\nStream size : 3.93 GiB (92%)\r\nLanguage : English\r\nDefault : Yes\r\nForced : No\r\nColor primaries : BT.709\r\nTransfer characteristics : BT.709\r\nMatrix coefficients : BT.709\r\nColor range : Limited\r\n\r\nAudio\r\nID : 2\r\nFormat : AC-3\r\nFormat/Info : Audio Coding 3\r\nMode extension : CM (complete main)\r\nFormat settings, Endianness : Big\r\nMuxing mode : Header stripping\r\nCodec ID : A_AC3\r\nDuration : 2h 23mn\r\nBit rate mode : Constant\r\nBit rate : 256 Kbps\r\nChannel(s) : 2 channels\r\nChannel positions : Front: L R\r\nSampling rate : 48.0 KHz\r\nBit depth : 16 bits\r\nCompression mode : Lossy\r\nStream size : 263 MiB (6%)\r\nLanguage : English\r\nDefault : Yes\r\n\r\n\r\n\r\n\r\nScreens \r\n \nhttp://extraimago.com/image/aEGh \nhttp://extraimago.com/image/aEGb \nhttp://extraimago.com/image/aEG3 \nhttp://extraimago.com/image/aEG9 \nhttp://extraimago.com/image/aEGM \nhttp://extraimago.com/image/aEGU \nhttp://extraimago.com/image/aEGz \nhttp://extraimago.com/image/aEG0 \nhttp://extraimago.com/image/aEGJ\r\n\r\nPlot\r\n\r\nFearing that the actions of Superman are left unchecked, Batman takes on the Man of Steel, while the world wrestles with what kind of a hero it really needs.\r\n\r\nCast overview, first billed only:\r\nBen Affleck ... Bruce Wayne / Batman\r\nHenry Cavill ... Clark Kent / Superman\r\nAmy Adams ... Lois\r\nJesse Eisenberg ... Lex Luthor\r\nDiane Lane ... Martha Kent\r\nLaurence Fishburne ... Perry White\r\nJeremy Irons ... Alfred\r\nHolly Hunter ... Senator Finch\r\nGal Gadot ... Diana Prince / Wonder Woman\r\nScoot McNairy ... Wallace Keefe\r\nCallan Mulvey ... Anatoli Knyazev\r\nTao Okamoto ... Mercy Graves\r\nBrandon Spink ... Young Bruce Wayne\r\nLauren Cohan ... Martha Wayne\r\nAlan D. Purwin ... Wayne Industries Pilot #1\r\n\r\n\r\n\r\nLOOKING FOR ANYTHING YOU WANT TO LOOK AND SOUND BETTER\r\n\r\nCOME FIND US WE DONT BITE","torrent":{"xt":"urn:btih:c491fa8a6f2badd5af9ab241cdd8c36e6feb2e10","amp;dn":"Batman+v+Superman-Dawn+of+Justice+2016+720P+HDTS+x264+Hive-CM8","amp;tr":["udp%3A%2F%2Ftracker.leechers-paradise.org%3A6969","udp%3A%2F%2Fzer0day.ch%3A1337","udp%3A%2F%2Fopen.demonii.com%3A1337","udp%3A%2F%2Ftracker.coppersurfer.tk%3A6969","udp%3A%2F%2Fexodus.desync.com%3A6969"],"infoHash":"c491fa8a6f2badd5af9ab241cdd8c36e6feb2e10","infoHashBuffer":{"type":"Buffer","data":[196,145,250,138,111,43,173,213,175,154,178,65,205,216,195,110,111,235,46,16]},"announce":[],"urlList":[]}}